<svg width="25" height="25" viewBox="0 0 25 25" fill="none" xmlns="http://www.w3.org/2000/svg">
<path d="M11.8511 2.54809C11.5098 3.9513 11.2179 5.12733 11.1999 5.15851C11.1775 5.1986 10.8721 4.7665 10.3197 3.91121C9.27789 2.31199 8.28094 0.792953 8.22705 0.739498C8.2046 0.71277 8.20011 0.788499 8.20909 0.917684C8.254 1.36315 8.6402 4.94023 8.70307 5.49706C8.739 5.8178 8.76145 6.08062 8.75696 6.08508C8.74798 6.09844 6.71367 4.57941 5.01168 3.29201C4.65691 3.02473 4.3695 2.82427 4.3695 2.84655C4.3695 2.87327 4.91737 3.97803 5.582 5.30551C6.25112 6.633 6.78552 7.72884 6.77654 7.74221C6.75858 7.75557 3.92941 6.87801 1.90857 6.22763C1.75139 6.17863 1.61667 6.14744 1.6032 6.16081C1.58973 6.16972 2.45195 7.02946 3.51626 8.0674L5.45177 9.95617L5.25867 9.98735C5.15089 10.0007 4.02371 10.0675 2.75283 10.1344C1.48195 10.1967 0.341297 10.2635 0.220047 10.2814L0 10.3125L2.47889 11.3861C3.84408 11.9741 4.95779 12.4775 4.96228 12.4998C4.96228 12.5176 3.84857 13.0165 2.49237 13.609C1.13167 14.197 0.0449075 14.6915 0.071852 14.7048C0.130232 14.736 0.233519 14.7405 3.30968 14.9008C4.4683 14.9632 5.42033 15.0166 5.42932 15.0256C5.4383 15.0345 4.57607 15.8898 3.51177 16.9232C2.45195 17.9612 1.58973 18.8209 1.6032 18.8298C1.62565 18.8566 2.46991 18.5982 5.01617 17.7919C5.97719 17.4845 6.76756 17.244 6.77654 17.2529C6.78552 17.2618 6.24663 18.3665 5.57302 19.7029C4.9039 21.0438 4.36501 22.1485 4.37399 22.1575C4.38297 22.1664 4.98024 21.7343 5.69427 21.1952C7.2346 20.0326 8.47404 19.1149 8.64918 18.9991L8.77941 18.9189L8.75247 19.0704C8.739 19.155 8.61326 20.2731 8.47853 21.5605C8.34381 22.8479 8.22256 23.9883 8.20909 24.0997C8.18664 24.2957 8.19113 24.3001 8.26747 24.2021C8.30789 24.1442 8.68511 23.574 9.10724 22.9326C10.6565 20.5493 11.1595 19.8143 11.1909 19.8499C11.2089 19.8722 11.5053 21.0304 11.8466 22.4292C12.1834 23.8235 12.4753 24.9817 12.4933 24.9995C12.5067 25.0173 12.6415 24.5362 12.7852 23.9304C13.5845 20.6384 13.7821 19.8455 13.8225 19.8455C13.845 19.8455 14.5096 20.83 15.3045 22.0372C16.0948 23.2399 16.7595 24.2422 16.7774 24.2645C16.7954 24.2823 16.7999 24.2155 16.7864 24.122C16.7729 24.024 16.7146 23.4404 16.6517 22.8301C16.5888 22.2154 16.4676 21.0972 16.3823 20.3355C16.2969 19.5782 16.2385 18.9501 16.2475 18.9412C16.2565 18.9278 16.6652 19.2218 17.1547 19.5871C17.6442 19.9569 18.6186 20.6874 19.3237 21.2175C20.0287 21.7476 20.6125 22.1708 20.6215 22.1575C20.6305 22.1485 20.0916 21.0438 19.4225 19.7029C18.7489 18.3665 18.21 17.2618 18.219 17.2529C18.228 17.244 18.8297 17.4266 19.5527 17.6583C21.7712 18.3665 23.3339 18.8476 23.3788 18.8298C23.4327 18.812 22.9343 18.3131 21.129 16.5713C20.2623 15.7294 19.5527 15.0345 19.5617 15.03C19.5707 15.0211 20.1724 14.9855 20.8955 14.9454C24.1063 14.7806 24.8294 14.736 24.9012 14.7093C24.9596 14.687 24.735 14.5712 24.1602 14.3262C21.2233 13.0611 20.0602 12.5488 20.0242 12.5131C19.9973 12.4909 20.0602 12.4419 20.1814 12.3884C20.2892 12.3439 20.9943 12.0409 21.7487 11.7158C22.5031 11.3906 23.5405 10.9451 24.0614 10.7224L25 10.3125L24.78 10.2814C24.6542 10.268 23.9312 10.219 23.1633 10.1789C21.2951 10.0854 19.5797 9.9829 19.5662 9.96508C19.5572 9.95617 20.4194 9.10533 21.4837 8.0674C22.5436 7.02946 23.4058 6.17417 23.3923 6.16081C23.3833 6.1519 22.4088 6.4459 21.2233 6.81564C18.7309 7.60411 18.2324 7.75557 18.21 7.7333C18.201 7.72439 18.7534 6.61073 19.4315 5.26097C20.1141 3.91121 20.6574 2.80646 20.644 2.80646C20.6305 2.80646 20.1994 3.12274 19.6919 3.51029C18.5198 4.40122 16.6068 5.83116 16.4137 5.9648C16.3329 6.02271 16.2565 6.05835 16.243 6.04944C16.2341 6.03608 16.2835 5.48815 16.3598 4.82887C16.5933 2.78418 16.8044 0.739498 16.7909 0.721679C16.7819 0.717224 16.4092 1.26515 15.9646 1.94671C14.101 4.79323 13.8225 5.20751 13.7956 5.17633C13.7821 5.15851 13.58 4.37449 13.3555 3.43011C12.601 0.298487 12.5247 2.57582e-05 12.4978 2.57582e-05C12.4843 2.57582e-05 12.1924 1.14933 11.8511 2.54809ZM10.1626 8.98951C10.3467 9.1276 10.5128 9.43943 10.6161 9.84035C10.7464 10.3482 10.7239 11.3282 10.5757 11.7336C10.3332 12.3884 9.9515 12.6601 9.57428 12.4419C9.01293 12.1122 8.77941 10.611 9.12969 9.60425C9.34525 8.97169 9.78534 8.71332 10.1626 8.98951ZM15.4482 8.95387C15.8029 9.16769 16.023 9.83589 16.023 10.6912C16.023 11.7737 15.6727 12.5176 15.1653 12.5176C14.55 12.5176 14.1279 11.199 14.3614 9.9918C14.5276 9.11869 14.9901 8.67768 15.4482 8.95387Z" fill="black"/>
</svg>
