<svg width="743" height="749" viewBox="0 0 743 749" fill="none" xmlns="http://www.w3.org/2000/svg">
<path d="M351.867 76.2669C341.733 118.267 333.067 153.467 332.533 154.4C331.867 155.6 322.8 142.667 306.4 117.067C275.467 69.2002 245.867 23.7336 244.267 22.1336C243.6 21.3336 243.467 23.6002 243.733 27.4669C245.067 40.8002 256.533 147.867 258.4 164.534C259.467 174.134 260.133 182 260 182.134C259.733 182.534 199.333 137.067 148.8 98.5336C138.267 90.5336 129.733 84.5336 129.733 85.2002C129.733 86.0002 146 119.067 165.733 158.8C185.6 198.534 201.467 231.334 201.2 231.734C200.667 232.134 116.667 205.867 56.6667 186.4C52 184.934 48 184 47.6 184.4C47.2 184.667 72.8 210.4 104.4 241.467L161.867 298L156.133 298.934C152.933 299.334 119.467 301.334 81.7333 303.334C44 305.2 10.1333 307.2 6.53333 307.734L0 308.667L73.6 340.8C114.133 358.4 147.2 373.467 147.333 374.134C147.333 374.667 114.267 389.6 74 407.334C33.6 424.934 1.33333 439.734 2.13333 440.134C3.86667 441.067 6.93333 441.2 98.2667 446C132.667 447.867 160.933 449.467 161.2 449.734C161.467 450 135.867 475.6 104.267 506.534C72.8 537.6 47.2 563.334 47.6 563.6C48.2667 564.4 73.3333 556.667 148.933 532.534C177.467 523.334 200.933 516.134 201.2 516.4C201.467 516.667 185.467 549.734 165.467 589.734C145.6 629.867 129.6 662.934 129.867 663.2C130.133 663.467 147.867 650.534 169.067 634.4C214.8 599.6 251.6 572.134 256.8 568.667L260.667 566.267L259.867 570.8C259.467 573.334 255.733 606.8 251.733 645.334C247.733 683.867 244.133 718 243.733 721.334C243.067 727.2 243.2 727.334 245.467 724.4C246.667 722.667 257.867 705.6 270.4 686.4C316.4 615.067 331.333 593.067 332.267 594.134C332.8 594.8 341.6 629.467 351.733 671.334C361.733 713.067 370.4 747.734 370.933 748.267C371.333 748.8 375.333 734.4 379.6 716.267C403.333 617.734 409.2 594 410.4 594C411.067 594 430.8 623.467 454.4 659.6C477.867 695.6 497.6 725.6 498.133 726.267C498.667 726.8 498.8 724.8 498.4 722C498 719.067 496.267 701.6 494.4 683.334C492.533 664.934 488.933 631.467 486.4 608.667C483.867 586 482.133 567.2 482.4 566.934C482.667 566.534 494.8 575.334 509.333 586.267C523.867 597.334 552.8 619.2 573.733 635.067C594.667 650.934 612 663.6 612.267 663.2C612.533 662.934 596.533 629.867 576.667 589.734C556.667 549.734 540.667 516.667 540.933 516.4C541.2 516.134 559.067 521.6 580.533 528.534C646.4 549.734 692.8 564.134 694.133 563.6C695.733 563.067 680.933 548.134 627.333 496C601.6 470.8 580.533 450 580.8 449.867C581.067 449.6 598.933 448.534 620.4 447.334C715.733 442.4 737.2 441.067 739.333 440.267C741.067 439.6 734.4 436.134 717.333 428.8C630.133 390.934 595.6 375.6 594.533 374.534C593.733 373.867 595.6 372.4 599.2 370.8C602.4 369.467 623.333 360.4 645.733 350.667C668.133 340.934 698.933 327.6 714.4 320.934L742.267 308.667L735.733 307.734C732 307.334 710.533 305.867 687.733 304.667C632.267 301.867 581.333 298.8 580.933 298.267C580.667 298 606.267 272.534 637.867 241.467C669.333 210.4 694.933 184.8 694.533 184.4C694.267 184.134 665.333 192.934 630.133 204C556.133 227.6 541.333 232.134 540.667 231.467C540.4 231.2 556.8 197.867 576.933 157.467C597.2 117.067 613.333 84.0002 612.933 84.0002C612.533 84.0002 599.733 93.4669 584.667 105.067C549.867 131.734 493.067 174.534 487.333 178.534C484.933 180.267 482.667 181.334 482.267 181.067C482 180.667 483.467 164.267 485.733 144.534C492.667 83.3336 498.933 22.1336 498.533 21.6002C498.267 21.4669 487.2 37.8669 474 58.2669C418.667 143.467 410.4 155.867 409.6 154.934C409.2 154.4 403.2 130.934 396.533 102.667C374.133 8.93356 371.867 0.000221391 371.067 0.000221391C370.667 0.000221391 362 34.4002 351.867 76.2669ZM301.733 269.067C307.2 273.2 312.133 282.534 315.2 294.534C319.067 309.734 318.4 339.067 314 351.2C306.8 370.8 295.467 378.934 284.267 372.4C267.6 362.534 260.667 317.6 271.067 287.467C277.467 268.534 290.533 260.8 301.733 269.067ZM458.667 268C469.2 274.4 475.733 294.4 475.733 320C475.733 352.4 465.333 374.667 450.267 374.667C432 374.667 419.467 335.2 426.4 299.067C431.333 272.934 445.067 259.734 458.667 268Z" fill="black"/>
</svg>
