<?xml version="1.0" standalone="no"?>
<!DOCTYPE svg PUBLIC "-//W3C//DTD SVG 20010904//EN"
 "http://www.w3.org/TR/2001/REC-SVG-20010904/DTD/svg10.dtd">
<svg version="1.0" xmlns="http://www.w3.org/2000/svg"
 width="1024.000000pt" height="1024.000000pt" viewBox="0 0 1024.000000 1024.000000"
 preserveAspectRatio="xMidYMid meet">

<g transform="translate(0.000000,1024.000000) scale(0.100000,-0.100000)"
fill="#000000" stroke="none">
<path d="M9035 7670 c-388 -61 -715 -329 -841 -690 l-23 -65 -818 -5 -818 -5
-97 -27 c-292 -80 -527 -265 -663 -521 -61 -114 -87 -203 -125 -417 -18 -102
-43 -213 -57 -246 -48 -121 -163 -230 -300 -285 -55 -22 -73 -24 -324 -27
l-265 -3 -18 63 c-25 93 -98 236 -165 325 -106 140 -230 241 -392 317 -567
268 -1258 -20 -1450 -604 l-32 -100 -284 2 -284 3 -29 88 c-55 162 -119 266
-244 395 -356 368 -924 423 -1359 132 -97 -65 -239 -215 -301 -318 -214 -358
-189 -794 64 -1130 139 -185 339 -316 587 -384 66 -18 104 -22 253 -21 194 0
254 11 415 77 170 69 354 217 454 365 43 63 131 238 131 260 0 8 86 11 311 11
307 0 311 0 316 -21 10 -37 82 -179 121 -237 54 -83 182 -213 268 -272 99 -68
223 -125 342 -157 87 -24 115 -27 267 -27 152 0 180 3 267 27 321 86 591 319
708 611 l29 71 248 3 c274 4 323 -2 418 -50 116 -58 203 -151 249 -265 14 -32
38 -138 55 -234 41 -231 61 -299 116 -410 72 -142 209 -296 345 -389 89 -61
215 -117 328 -147 91 -25 116 -27 391 -32 l294 -6 23 -67 c107 -318 387 -574
729 -665 89 -23 118 -26 265 -26 147 0 176 3 265 26 694 185 1003 966 613
1548 -329 492 -1006 615 -1493 271 -174 -122 -307 -297 -376 -492 l-27 -75
-236 -3 c-185 -2 -251 1 -303 13 -148 34 -280 139 -346 275 -29 59 -42 107
-62 220 -67 381 -123 512 -296 694 l-72 76 72 76 c110 115 179 230 230 382 11
32 36 148 56 258 29 162 42 212 70 270 62 127 166 219 302 266 l68 23 784 0
783 0 27 -75 c69 -195 202 -370 376 -492 88 -62 157 -98 265 -135 130 -46 209
-58 365 -57 156 2 264 24 407 84 171 71 348 219 457 381 340 506 150 1192
-404 1465 -151 74 -272 104 -440 109 -71 2 -157 0 -190 -5z m251 -511 c93 -17
191 -68 265 -137 107 -100 159 -220 159 -368 0 -223 -144 -417 -360 -485 -90
-28 -231 -28 -321 0 -164 52 -293 183 -343 351 -19 64 -22 200 -6 262 37 136
153 273 285 334 111 51 207 64 321 43z m-8070 -1514 c123 -41 209 -107 276
-210 60 -92 81 -175 76 -299 -3 -97 -6 -108 -45 -187 -80 -161 -224 -266 -400
-291 -262 -38 -515 128 -583 381 -18 68 -14 197 9 272 51 164 191 297 361 345
25 7 87 13 138 13 75 1 108 -4 168 -24z m2605 9 c181 -53 322 -198 364 -375
60 -258 -84 -512 -343 -601 -94 -32 -240 -32 -334 0 -139 48 -243 140 -306
270 -134 280 12 605 318 703 72 23 226 25 301 3z m4469 -1581 c112 -30 226
-115 292 -217 105 -163 105 -379 0 -542 -177 -272 -557 -322 -795 -104 -99 90
-151 188 -166 308 -24 197 63 383 232 493 127 82 282 105 437 62z"/>
</g>
</svg>
