<svg width="1666" height="330" viewBox="0 0 1666 330" fill="none" xmlns="http://www.w3.org/2000/svg">
<path d="M197.201 172.174C245.835 190.557 242.837 321.929 242.837 321.929H145.236V216.114C145.236 195.489 124.25 197.731 124.25 197.731H82.6113V321.929H0V8.51902H150.899C196.535 8.51902 240.505 32.731 240.505 91.9158C240.505 151.101 197.201 172.174 197.201 172.174ZM146.568 136.753C149.899 132.717 150.899 125.992 149.233 120.163C147.235 114.783 143.237 111.196 138.907 111.196H82.6113V141.236H138.907C141.572 141.236 144.57 139.443 146.568 136.753Z" fill="#FEFFB9"/>
<path d="M446.38 12.106L532.989 322.826H438.386L408.406 216.563H381.757L352.11 322.826H257.507L344.116 12.106H446.38ZM383.089 165.448H407.406L395.081 121.957L383.089 165.448Z" fill="#FEFFB9"/>
<path d="M805.478 238.533H847.117V329.103H617.937C598.95 329.103 580.629 318.791 567.304 300.856C553.98 282.921 546.319 258.261 546.652 232.704V95.9511C546.319 70.8424 553.98 46.1821 567.304 28.2473C580.629 10.3125 598.95 0 617.937 0H734.193C773.5 0 805.478 43.0435 805.478 95.9511V232.704C805.478 234.946 805.478 236.739 805.478 238.533ZM688.89 229.565C701.881 229.565 712.207 215.666 712.207 198.179V130.924C712.207 113.438 701.881 99.0897 688.89 99.0897H663.24C650.249 99.0897 639.589 113.438 639.589 130.924V198.179C639.589 215.666 650.249 229.565 663.24 229.565H688.89Z" fill="#FEFFB9"/>
<path d="M1015.14 8.51902H1096.42V237.636C1096.75 288.75 1065.77 330 1027.8 330H938.857C900.883 330 869.904 288.75 870.237 237.636V8.51902H951.516V204.905C951.516 208.492 952.515 211.63 954.514 214.321C956.512 217.011 958.844 218.356 961.509 218.356H1005.15C1007.81 218.356 1010.14 217.011 1012.14 214.321C1014.14 211.63 1015.14 208.492 1015.14 204.905V8.51902Z" fill="#FEFFB9"/>
<path d="M1385.81 115.679H1212.93V141.236H1316.53V189.66H1212.93V215.217H1385.81V322.826H1133.32V8.07066H1385.81V115.679Z" fill="#FEFFB9"/>
<path d="M1509.11 201.766H1666V322.826H1419.17V8.07066H1509.11V201.766Z" fill="#FEFFB9"/>
<rect x="612" y="113" width="134" height="83" fill="#FEFFB9"/>
<path d="M673.062 73.4417C669.95 86.3513 667.288 97.1708 667.125 97.4577C666.92 97.8265 664.135 93.8512 659.099 85.9825C649.599 71.2696 640.508 57.2944 640.017 56.8027C639.812 56.5568 639.771 57.2535 639.853 58.442C640.263 62.5403 643.784 95.4495 644.358 100.572C644.685 103.523 644.89 105.941 644.849 105.982C644.767 106.105 626.217 92.1299 610.698 80.2859C607.463 77.8269 604.843 75.9827 604.843 76.1876C604.843 76.4335 609.838 86.5972 615.899 98.8101C622 111.023 626.873 121.105 626.791 121.228C626.627 121.351 600.83 113.277 582.403 107.294C580.97 106.843 579.741 106.556 579.618 106.679C579.496 106.761 587.358 114.671 597.062 124.22L614.711 141.596L612.95 141.883C611.968 142.006 601.69 142.621 590.101 143.236C578.513 143.809 568.112 144.424 567.006 144.588L565 144.875L587.603 154.752C600.052 160.162 610.207 164.793 610.248 164.998C610.248 165.161 600.093 169.752 587.726 175.202C575.319 180.612 565.409 185.161 565.655 185.284C566.187 185.571 567.129 185.612 595.179 187.087C605.743 187.661 614.424 188.153 614.506 188.235C614.588 188.317 606.726 196.186 597.021 205.694C587.358 215.243 579.496 223.152 579.618 223.234C579.823 223.48 587.521 221.103 610.739 213.685C619.502 210.857 626.709 208.644 626.791 208.726C626.873 208.808 621.959 218.972 615.817 231.267C609.715 243.603 604.802 253.767 604.884 253.848C604.965 253.93 610.412 249.955 616.922 244.996C630.967 234.3 642.269 225.857 643.866 224.792L645.054 224.054L644.808 225.447C644.685 226.226 643.539 236.513 642.31 248.357C641.082 260.201 639.976 270.692 639.853 271.717C639.648 273.52 639.689 273.561 640.386 272.66C640.754 272.127 644.194 266.881 648.043 260.98C662.17 239.054 666.756 232.291 667.043 232.619C667.207 232.824 669.909 243.48 673.021 256.348C676.092 269.176 678.754 279.832 678.918 279.996C679.041 280.16 680.269 275.733 681.579 270.16C688.868 239.873 690.67 232.578 691.038 232.578C691.243 232.578 697.303 241.636 704.551 252.742C711.758 263.807 717.819 273.028 717.982 273.233C718.146 273.397 718.187 272.783 718.064 271.922C717.941 271.02 717.409 265.652 716.836 260.037C716.262 254.381 715.157 244.095 714.379 237.086C713.601 230.119 713.069 224.341 713.15 224.259C713.232 224.136 716.959 226.841 721.422 230.201C725.885 233.603 734.771 240.324 741.2 245.201C747.629 250.078 752.952 253.971 753.034 253.848C753.116 253.767 748.202 243.603 742.101 231.267C735.959 218.972 731.045 208.808 731.127 208.726C731.209 208.644 736.696 210.325 743.288 212.456C763.517 218.972 777.767 223.398 778.176 223.234C778.667 223.07 774.122 218.48 757.661 202.456C749.758 194.71 743.288 188.317 743.37 188.276C743.452 188.194 748.939 187.866 755.532 187.497C784.81 185.981 791.402 185.571 792.058 185.325C792.59 185.12 790.542 184.055 785.301 181.801C758.521 170.161 747.915 165.448 747.588 165.12C747.342 164.916 747.915 164.465 749.021 163.973C750.004 163.563 756.433 160.776 763.312 157.785C770.191 154.793 779.65 150.694 784.4 148.645L792.958 144.875L790.952 144.588C789.805 144.465 783.213 144.014 776.211 143.645C759.176 142.785 743.534 141.842 743.411 141.678C743.329 141.596 751.191 133.769 760.896 124.22C770.56 114.671 778.422 106.802 778.299 106.679C778.217 106.597 769.331 109.302 758.521 112.703C735.795 119.957 731.249 121.351 731.045 121.146C730.963 121.064 735.999 110.818 742.183 98.4003C748.407 85.9825 753.362 75.8187 753.239 75.8187C753.116 75.8187 749.185 78.7285 744.558 82.294C733.87 90.4906 716.426 103.646 714.665 104.876C713.928 105.408 713.232 105.736 713.109 105.654C713.028 105.531 713.478 100.49 714.174 94.425C716.303 75.6138 718.228 56.8027 718.105 56.6387C718.023 56.5977 714.625 61.6386 710.571 67.909C693.577 94.0971 691.038 97.9085 690.793 97.6216C690.67 97.4577 688.827 90.2447 686.78 81.5563C679.901 52.7453 679.204 49.9995 678.959 49.9995C678.836 49.9995 676.174 60.5731 673.062 73.4417ZM657.666 132.703C659.345 133.973 660.86 136.842 661.801 140.531C662.989 145.203 662.784 154.219 661.433 157.948C659.222 163.973 655.741 166.473 652.301 164.465C647.183 161.432 645.054 147.621 648.248 138.359C650.213 132.539 654.226 130.162 657.666 132.703ZM705.862 132.375C709.097 134.342 711.103 140.49 711.103 148.358C711.103 158.317 707.909 165.161 703.282 165.161C697.672 165.161 693.823 153.031 695.952 141.924C697.467 133.892 701.685 129.834 705.862 132.375Z" fill="#84ABD6"/>
</svg>
